<?xml version="1.0" encoding="utf-8"?>

<!-- Uploaded to: SVG Repo, www.svgrepo.com, Generator: SVG Repo Mixer Tools -->
<svg version="1.1" id="Icons" xmlns="http://www.w3.org/2000/svg" xmlns:xlink="http://www.w3.org/1999/xlink" 
	 viewBox="0 0 32 32" xml:space="preserve">
<style type="text/css">
	.st0{fill:none;stroke:#000000;stroke-width:2;stroke-linecap:round;stroke-linejoin:round;stroke-miterlimit:10;}
	.st1{fill:none;stroke:#000000;stroke-width:2;stroke-linecap:round;stroke-linejoin:round;}
	.st2{fill:none;stroke:#000000;stroke-width:2;stroke-linecap:round;stroke-linejoin:round;stroke-dasharray:6,6;}
	.st3{fill:none;stroke:#000000;stroke-width:2;stroke-linecap:round;stroke-linejoin:round;stroke-dasharray:4,4;}
	.st4{fill:none;stroke:#000000;stroke-width:2;stroke-linecap:round;}
	.st5{fill:none;stroke:#000000;stroke-width:2;stroke-linecap:round;stroke-dasharray:3.1081,3.1081;}
	
		.st6{fill:none;stroke:#000000;stroke-width:2;stroke-linecap:round;stroke-linejoin:round;stroke-miterlimit:10;stroke-dasharray:4,3;}
</style>
<path class="st0" d="M27,17V8.8c1.2-0.4,2-1.5,2-2.8c0-1.7-1.3-3-3-3c-1.3,0-2.4,0.8-2.8,2H8.8C8.4,3.8,7.3,3,6,3C4.3,3,3,4.3,3,6
	c0,1.3,0.8,2.4,2,2.8v14.4c-1.2,0.4-2,1.5-2,2.8c0,1.7,1.3,3,3,3c1.3,0,2.4-0.8,2.8-2H15"/>
<polyline class="st0" points="18.2,23 9,23 9,9 23,9 23,18 "/>
<circle class="st0" cx="13" cy="13" r="1"/>
<polygon class="st0" points="17.8,29 15,29 15,26.2 25.6,15.6 28.4,18.4 "/>
<polyline class="st0" points="9,20 16,16 21.5,19.7 "/>
</svg>