<?xml version="1.0" encoding="iso-8859-1"?>
<!-- Uploaded to: SVG Repo, www.svgrepo.com, Generator: SVG Repo Mixer Tools -->
<!DOCTYPE svg PUBLIC "-//W3C//DTD SVG 1.1//EN" "http://www.w3.org/Graphics/SVG/1.1/DTD/svg11.dtd">
<svg fill="#000000" height="800px" width="800px" version="1.1" id="Capa_1" xmlns="http://www.w3.org/2000/svg" xmlns:xlink="http://www.w3.org/1999/xlink" 
	 viewBox="0 0 492.241 492.241" xml:space="preserve">
<g>
	<path d="M486.557,96.19L396.059,5.696c-3.643-3.646-8.596-5.694-13.74-5.694c-5.146,0-10.094,2.047-13.742,5.694l-0.98,0.99
		l25.885,25.894c3.225,3.227,3.225,8.451,0,11.678c-1.613,1.612-3.729,2.418-5.838,2.418c-2.113,0-4.229-0.806-5.842-2.418
		l-25.883-25.894l-22.873,22.854l25.902,25.885c3.227,3.227,3.227,8.453,0,11.678c-1.611,1.612-3.727,2.418-5.836,2.418
		c-2.113,0-4.228-0.806-5.842-2.418l-25.898-25.885l-22.838,22.854l48.898,48.909c3.229,3.225,3.229,8.451,0,11.675
		c-1.613,1.612-3.709,2.419-5.836,2.419c-2.096,0-4.225-0.807-5.838-2.419l-48.904-48.908L264,110.271l117.434,118.508
		l105.123-105.107C494.135,116.084,494.135,103.778,486.557,96.19z"/>
	<path d="M91.368,282.897l48.918,48.917c3.225,3.225,3.225,8.451,0,11.676c-1.617,1.612-3.744,2.418-5.842,2.418
		c-2.127,0-4.223-0.806-5.836-2.418l-48.932-48.915l-22.84,22.853l25.902,25.901c3.227,3.227,3.227,8.451,0,11.678
		c-1.611,1.612-3.727,2.418-5.84,2.418c-2.109,0-4.225-0.806-5.838-2.418l-25.902-25.903L18.357,355.91l25.899,25.901
		c3.225,3.227,3.225,8.451,0,11.678c-1.613,1.612-3.74,2.419-5.838,2.419c-2.127,0-4.224-0.806-5.841-2.419L6.679,367.585
		l-0.999,0.984C2.032,372.215,0,377.158,0,382.31c0,5.155,2.032,10.098,5.681,13.742l90.511,90.495
		c7.576,7.589,19.881,7.589,27.482,0l104.99-104.985l-117.99-117.985L91.368,282.897z"/>
	<path d="M212.858,95.246c-1.773-1.783-3.934-3.128-6.32-3.95L62.997,42.145c-5.967-2.018-12.563-0.509-17.031,3.95
		c-4.451,4.459-5.984,11.065-3.934,17.024l49.143,143.54c0.82,2.387,2.174,4.549,3.953,6.33l230.18,230.182
		c15.707,15.718,36.607,24.378,58.836,24.378c22.223,0,43.141-8.66,58.881-24.403c32.469-32.465,32.469-85.285,0-117.743
		L212.858,95.246z M204.442,133.543l198.022,198.004l-17.516,17.515L186.928,151.051L204.442,133.543z M93.998,112.924
		l18.805-18.813l62.834,21.522l-60.125,60.126L93.998,112.924z M331.42,402.577L133.413,204.564l17.514-17.517L348.934,385.07
		L331.42,402.577z M419.672,419.785c-16.791,16.789-44.951,18.54-64.238,5.484l69.771-69.747
		C438.911,375.101,437.137,402.31,419.672,419.785z"/>
</g>
</svg>