<?xml version="1.0" encoding="iso-8859-1"?>
<!-- Uploaded to: SVG Repo, www.svgrepo.com, Generator: SVG Repo Mixer Tools -->
<!DOCTYPE svg PUBLIC "-//W3C//DTD SVG 1.1//EN" "http://www.w3.org/Graphics/SVG/1.1/DTD/svg11.dtd">
<svg fill="#000000" height="800px" width="800px" version="1.1" id="Capa_1" xmlns="http://www.w3.org/2000/svg" xmlns:xlink="http://www.w3.org/1999/xlink" 
	 viewBox="0 0 486.12 486.12" xml:space="preserve">
<g>
	<path d="M458.5,28.215H176.331c-13.267,0-24.03,10.764-24.03,24.016v126.221c0,3.992,2.809,7.418,6.704,8.225
		c3.9,0.802,7.831-1.266,9.391-4.926l30.802-71.955h68.482v299.337c0,26.932,21.842,48.773,48.775,48.773
		c26.935,0,48.776-21.842,48.776-48.773V109.795h70.404l30.802,71.969c1.565,3.646,5.491,5.697,9.372,4.912
		c3.913-0.807,6.722-4.248,6.722-8.225V52.23C482.531,38.979,471.772,28.215,458.5,28.215z"/>
	<path d="M103.999,98.749c2.021,0.586,4.183-0.094,5.508-1.734c1.312-1.645,1.515-3.898,0.505-5.745L61.693,2.699
		C60.78,1.027,59.03,0,57.12,0c-1.893,0-3.648,1.027-4.56,2.699L4.227,91.27c-1.01,1.847-0.807,4.101,0.505,5.745
		c1.325,1.641,3.501,2.32,5.504,1.749l22.631-6.546l0.013,301.7l-22.644-6.545c-2.003-0.6-4.197,0.108-5.504,1.717
		c-1.293,1.658-1.515,3.93-0.505,5.762l48.315,88.553c0.917,1.675,2.685,2.716,4.56,2.716c1.91-0.018,3.661-1.026,4.591-2.701
		l48.302-88.567c0.997-1.832,0.807-4.104-0.488-5.746c-1.325-1.625-3.505-2.305-5.521-1.733l-22.631,6.545L81.341,92.201
		L103.999,98.749z"/>
</g>
</svg>