<svg id="ava-container" xmlns="http://www.w3.org/2000/svg" viewBox="0 0 276.85 311.76" width="300"><!----><!----><!----><path class="uuid-0bce1b92-9ee1-4cd2-95a8-a45de1cfb538" fill="#FDD6C2" d="m219.53,120.77c0-31.49-23.5-67.92-75.31-67.92-46.67,0-75.97,18.56-83.78,65.51-2.08,12.49,3.93,32.09,7.44,38.93,6.36,16.78,18.88,46.86,29.85,55.76,8.91,7.23,31.57,19.06,43.16,19.97,11.59-.91,34.25-12.74,43.16-19.97,11.84-9.6,25.47-43.86,31.24-59.46,5.15-11.82,4.25-28.17,4.25-32.82Z"></path><path fill="#fff" d="m122.66,180.52s-7.28,10.17-16.25,10.17-16.25-10.17-16.25-10.17c0,0,7.28-9.33,16.25-9.33s16.25,9.33,16.25,9.33"></path><path fill="#fff" d="m159.12,180.52s7.28,10.17,16.25,10.17,16.25-10.17,16.25-10.17c0,0-7.28-9.33-16.25-9.33s-16.25,9.33-16.25,9.33"></path><path fill="#231f20" d="m116.37,176.57c0-.77-.1-1.52-.26-2.24-2.33-2.62-5.74-4.28-9.55-4.28-4.03,0-7.62,1.85-9.94,4.73-.11.58-.17,1.18-.17,1.78,0,5.5,4.46,9.96,9.96,9.96s9.96-4.46,9.96-9.96"></path><path fill="#231f20" d="m165.41,176.57c0-.77.1-1.52.26-2.24,2.33-2.62,5.74-4.28,9.55-4.28,4.03,0,7.62,1.85,9.94,4.73.11.58.17,1.18.17,1.78,0,5.5-4.46,9.96-9.96,9.96s-9.96-4.46-9.96-9.96"></path><path fill="#85481F" d="m185.16,174.79c-1.45-1.8-3.39-3.19-5.62-3.99,1.37,1.1,2.23,2.73,2.23,4.55,0,3.31-2.87,6-6.41,6s-6.41-2.69-6.41-6c0-1.91.95-3.6,2.43-4.7-2.24.7-4.21,1.98-5.72,3.69-.17.72-.26,1.47-.26,2.24,0,5.5,4.46,9.96,9.96,9.96s9.96-4.46,9.96-9.96c0-.61-.06-1.2-.17-1.78Z"></path><path fill="#85481F" d="m116.11,174.33c-1.62-1.82-3.77-3.16-6.22-3.82,1.76,1.07,2.92,2.92,2.92,5.03,0,3.31-2.87,6-6.41,6s-6.41-2.69-6.41-6c0-2.01,1.06-3.79,2.68-4.88-2.42.77-4.52,2.21-6.07,4.12-.11.58-.17,1.18-.17,1.78,0,5.5,4.46,9.96,9.96,9.96s9.96-4.46,9.96-9.96c0-.77-.1-1.52-.26-2.24Z"></path><path fill="#fff" d="m103.33,176.63c0,1.43-1.16,2.59-2.59,2.59s-2.59-1.16-2.59-2.59,1.16-2.59,2.59-2.59,2.59,1.16,2.59,2.59"></path><path fill="#fff" d="m172.34,176.63c0,1.43-1.16,2.59-2.59,2.59s-2.59-1.16-2.59-2.59,1.16-2.58,2.59-2.58,2.59,1.16,2.59,2.58"></path><path fill="#231f20" d="m191.97,181.29s-4.94-7.68-15.04-9.6c-10.1-1.92-17.82,8.83-17.82,8.83,0,0,6.29-10.99,13.43-12.84,2.29-.59,5.13-.31,5.13-.31,0,0,4.16-1.71,4.79-1.33.64.39-.79,2.31-.79,2.31,0,0,4.7-1.89,5-1.23.3.66-1.36,2.98-1.36,2.98,0,0,5.85-3.56,6.29-2.62.44.94-2.58,4.1-2.58,4.1,0,0,9.56-4.51,9.99-2.76.43,1.75-6.65,6.95-6.65,6.95,0,0,12.21-4.82,12.51-3,.3,1.82-13.04,9.34-13.04,9.34l.13-.81Z"></path><path fill="#231f20" d="m89.81,181.29s4.94-7.68,15.04-9.6c10.1-1.92,17.82,8.83,17.82,8.83,0,0-6.29-10.99-13.44-12.84-2.29-.59-5.13-.31-5.13-.31,0,0-4.16-1.71-4.79-1.33-.63.39.79,2.31.79,2.31,0,0-4.7-1.89-5-1.23-.3.66,1.36,2.98,1.36,2.98,0,0-5.85-3.56-6.29-2.62-.44.94,2.58,4.1,2.58,4.1,0,0-9.56-4.51-9.99-2.76-.43,1.75,6.65,6.95,6.65,6.95,0,0-12.2-4.82-12.5-3-.3,1.82,13.03,9.34,13.03,9.34l-.13-.81Z"></path><!----><!----><g><path fill="#6D4021" d="m241.63,98.59c6.91-5.44,3.44-15.23,1.42-22.26-.58-3.36-4.34-5.81-7.52-4.59-2.6.92-8.1,3.36-8.1,1.22,0-16.21-2.03-34.86-21.18-32.58-4.56-.44-9.48-1.97-12.66-5.95,2.6,1.22,5.21.61,7.52-.92-1.16,0-2.31-.92-3.47-1.53-10.99-5.81-19.09-23.85-32.68-18.65-3.47,1.53-4.63,6.73-7.81,8.56-6.65,3.97-17.64,5.2-21.69-2.75,2.03.31,4.92,0,6.07-2.14-4.05,0-6.94-3.36-10.12-4.89-4.63-2.45-8.82-1.38-12.54,1.16-6.55,4.04-9.73,11.38-15.8,16.58-3.76,3.36-8.39.31-12.44.61-3.47.31-5.93,2.52-8.06,5.31-4.09,9.37-11.9,14.26-22.02,11.81-.87,0-1.45.31-2.03.92,1.16.61,2.6,0,3.76,1.22-1.74,0-2.6,1.53-3.18,3.06-.87,3.98.87,9.17-1.74,11.01-3.18,1.99-5.95,4.47-8.24,7.3-2.3,2.83-4.12,6-5.35,9.37-2.61,7.18-3.19,15.74,1.15,22.16,2.31,3.36,7.23,3.67,8.97,7.34.87,1.53.58,3.67-1.16,4.59-5.79,2.75-13.31,6.73-13.02,14.37.29,6.42,6.36,7.64,10.41,11.01,3.18,2.14,1.74,6.73.29,10.09,1.45-1.22,1.73-3.06,3.18-4.28,1.74,4.59-2.89,7.95-2.89,12.54.29.61.29,1.53.58,1.84,1.74.92,3.76-1.83,5.5.31,6.65,9.17,9.83,19.57,3.76,30.27-1.16,1.83-.29,4.89,1.74,6.42,5.78,3.67,17.35,8.56,11.57,17.12,2.89.61,5.21-2.45,4.63-5.5-1.16-7.34-7.52-9.78-11.57-14.98-.58-.92,0-1.83.29-2.45,2.31-5.2,12.44-4.89,10.99-11.01-2.31-10.09,2.31-19.27,7.17-26.48,1.82-2.84,3.68-5.63,5.27-8.39,2.31-3.67,1.45-7.95,1.74-11.93.29-4.89,3.76-8.26,7.59-10.4,2.82-1.68,5.86-3.21,8.03-5.81.87,2.45,3.47,4.28,5.5,3.97,3.23-.25,6.44-.29,9.64-.12,3.36.32,6.74.78,10.12,1.37,3.38.59,6.77,1.32,10.18,2.18,22.71,4.22,43.54,17.37,54.82,39.39-3.47-11.31-3.47-26.3-14.46-33.03,11.22,9.72,17.27,23.62,20.22,38.36,0,0,0,0,0,.01,2.14,10.8-8.24,16.22-5.75,26.54.14-1.09.39-3.12.98-4.08,3.18-5.2,9.26-7.65,10.7-13.46,3.76-15.29,13.1-16.5,21.49-29.04,5.93-6.01,4.57-10.74,4.43-12.84-.58-3.33-.16-4.58-.01-7.94.29-3.06,2.89-5.2,5.5-7.03,1.16-.92,2.02-3.06,1.45-4.89-1.74-5.5-7.52-10.7-4.08-16.76.71-.58,1.69-1.07,2.96-1.35Z"></path></g><!----><!----><!----><g><polygon fill="#065A1A" points="73.09 169.82 78.46 166.9 78.24 172.19 75.29 172.19 74.23 171.05 73.09 169.82"></polygon><polygon fill="#065A1A" points="210.14 167.62 204.77 164.46 204.99 170.19 207.94 170.19 209 168.95 210.14 167.62"></polygon><g id="b"><path fill="#065A1A" d="m104.51,160.75c4.69.32,9.48.63,14.26.99,5.1.39,10.04,1.65,15.01,2.75,3.04.67,6.13.77,9.21.56,2.34-.16,4.68-.54,6.98-1,4.26-.84,8.48-1.86,12.75-2.67,1.94-.37,3.93-.48,5.91-.6,3.96-.24,7.92-.59,11.88-.55,3.77.03,7.55.35,11.3.8,4.31.51,8.58,1.26,12.86,1.96,1.82.3,1.82.36,1.88,2.21.05,1.54.04,3.09.09,4.63.02.63-.18,1.09-.68,1.45-1.4.99-2.06,2.4-2.36,4.05-1.2,6.63-2.85,13.14-5.34,19.41-2,5.02-5.75,8.27-10.69,10.16-6.6,2.52-13.38,2.94-20.24,1.21-3.85-.97-7.39-2.71-10.28-5.44-1.53-1.45-2.79-3.25-3.91-5.05-2.8-4.46-4.63-9.33-5.89-14.44-.41-1.67-.88-3.36-2.23-4.64-2.63-2.51-7.17-1.53-8.35,1.92-.76,2.25-1.25,4.6-1.96,6.87-1.49,4.75-3.33,9.35-6.33,13.37-1.59,2.13-3.59,3.85-5.93,5.21-4.6,2.68-9.54,3.78-14.84,3.85-4.04.05-7.93-.5-11.67-1.91-3.78-1.43-7.1-3.54-9.31-7.06-1.24-1.98-2.25-4.07-2.92-6.33-1.11-3.72-2.3-7.41-3.37-11.14-.5-1.75-.84-3.54-1.2-5.32-.28-1.39-1.01-2.49-2.15-3.27-.72-.5-.9-1.14-.88-1.93.04-1.63.05-3.26.07-4.89.01-1.1.09-1.27,1.17-1.46,4.98-.88,9.96-1.84,14.97-2.54,4-.56,8.05-.77,12.2-1.15Zm70.78,43.83c2.07-.24,4.15-.4,6.21-.72,3.15-.49,6.02-1.75,8.59-3.62,3.68-2.67,5.46-6.53,6.4-10.8.67-3.04,1.18-6.13,1.56-9.22.35-2.83.61-5.68-.14-8.52-.86-3.26-2.69-5.56-6.08-6.37-2.1-.5-4.21-1.07-6.35-1.29-3.33-.34-6.68-.6-10.02-.55-3.28.05-6.57.42-9.84.85-3.34.44-6.63,1.19-9.76,2.48-1.83.75-3.32,1.96-4.4,3.62-1.48,2.26-1.43,4.79-1.1,7.3.48,3.67,1.42,7.23,2.6,10.75,1.36,4.06,3.19,7.8,6.48,10.71,2,1.77,4.27,3.1,6.74,3.96,2.91,1.02,5.98,1.42,9.11,1.41Zm-67.17.66c1.52-.15,3.04-.29,4.55-.47,5.47-.66,9.84-3.3,13.31-7.49,1.87-2.26,2.91-4.94,3.87-7.69,1.45-4.17,2.47-8.43,2.78-12.83.14-1.98.01-3.96-1.11-5.74-1.25-1.98-2.99-3.35-5.19-4.1-6.49-2.2-13.24-2.76-20.03-2.75-5.1,0-10.14.67-15.09,2-3.34.9-6.03,3.65-6.38,7.06-.17,1.69-.13,3.41-.1,5.12.02,1.33.06,2.69.28,4,.41,2.42.92,4.82,1.46,7.21.81,3.57,1.9,6.99,4.6,9.7,2.29,2.3,4.98,3.9,8.06,4.79,2.92.84,5.93,1.14,8.99,1.18Z"></path></g></g><!----></svg>