<svg id="ava-container" xmlns="http://www.w3.org/2000/svg" viewBox="0 0 276.85 311.76" width="300"><!----><!----><!----><path class="uuid-0bce1b92-9ee1-4cd2-95a8-a45de1cfb538" fill="#e3a669" d="m219.53,120.77c0-31.49-23.5-67.92-75.31-67.92-46.67,0-75.97,18.56-83.78,65.51-2.08,12.49,3.93,32.09,7.44,38.93,6.36,16.78,18.88,46.86,29.85,55.76,8.91,7.23,31.57,19.06,43.16,19.97,11.59-.91,34.25-12.74,43.16-19.97,11.84-9.6,25.47-43.86,31.24-59.46,5.15-11.82,4.25-28.17,4.25-32.82Z"></path><path fill="#fff" d="m122.66,180.52s-7.28,10.17-16.25,10.17-16.25-10.17-16.25-10.17c0,0,7.28-9.33,16.25-9.33s16.25,9.33,16.25,9.33"></path><path fill="#fff" d="m159.12,180.52s7.28,10.17,16.25,10.17,16.25-10.17,16.25-10.17c0,0-7.28-9.33-16.25-9.33s-16.25,9.33-16.25,9.33"></path><path fill="#231f20" d="m116.37,176.57c0-.77-.1-1.52-.26-2.24-2.33-2.62-5.74-4.28-9.55-4.28-4.03,0-7.62,1.85-9.94,4.73-.11.58-.17,1.18-.17,1.78,0,5.5,4.46,9.96,9.96,9.96s9.96-4.46,9.96-9.96"></path><path fill="#231f20" d="m165.41,176.57c0-.77.1-1.52.26-2.24,2.33-2.62,5.74-4.28,9.55-4.28,4.03,0,7.62,1.85,9.94,4.73.11.58.17,1.18.17,1.78,0,5.5-4.46,9.96-9.96,9.96s-9.96-4.46-9.96-9.96"></path><path fill="#944921" d="m185.16,174.79c-1.45-1.8-3.39-3.19-5.62-3.99,1.37,1.1,2.23,2.73,2.23,4.55,0,3.31-2.87,6-6.41,6s-6.41-2.69-6.41-6c0-1.91.95-3.6,2.43-4.7-2.24.7-4.21,1.98-5.72,3.69-.17.72-.26,1.47-.26,2.24,0,5.5,4.46,9.96,9.96,9.96s9.96-4.46,9.96-9.96c0-.61-.06-1.2-.17-1.78Z"></path><path fill="#944921" d="m116.11,174.33c-1.62-1.82-3.77-3.16-6.22-3.82,1.76,1.07,2.92,2.92,2.92,5.03,0,3.31-2.87,6-6.41,6s-6.41-2.69-6.41-6c0-2.01,1.06-3.79,2.68-4.88-2.42.77-4.52,2.21-6.07,4.12-.11.58-.17,1.18-.17,1.78,0,5.5,4.46,9.96,9.96,9.96s9.96-4.46,9.96-9.96c0-.77-.1-1.52-.26-2.24Z"></path><path fill="#fff" d="m103.33,176.63c0,1.43-1.16,2.59-2.59,2.59s-2.59-1.16-2.59-2.59,1.16-2.59,2.59-2.59,2.59,1.16,2.59,2.59"></path><path fill="#fff" d="m172.34,176.63c0,1.43-1.16,2.59-2.59,2.59s-2.59-1.16-2.59-2.59,1.16-2.58,2.59-2.58,2.59,1.16,2.59,2.58"></path><path fill="#231f20" d="m191.97,181.29s-4.94-7.68-15.04-9.6c-10.1-1.92-17.82,8.83-17.82,8.83,0,0,6.29-10.99,13.43-12.84,2.29-.59,5.13-.31,5.13-.31,0,0,4.16-1.71,4.79-1.33.64.39-.79,2.31-.79,2.31,0,0,4.7-1.89,5-1.23.3.66-1.36,2.98-1.36,2.98,0,0,5.85-3.56,6.29-2.62.44.94-2.58,4.1-2.58,4.1,0,0,9.56-4.51,9.99-2.76.43,1.75-6.65,6.95-6.65,6.95,0,0,12.21-4.82,12.51-3,.3,1.82-13.04,9.34-13.04,9.34l.13-.81Z"></path><path fill="#231f20" d="m89.81,181.29s4.94-7.68,15.04-9.6c10.1-1.92,17.82,8.83,17.82,8.83,0,0-6.29-10.99-13.44-12.84-2.29-.59-5.13-.31-5.13-.31,0,0-4.16-1.71-4.79-1.33-.63.39.79,2.31.79,2.31,0,0-4.7-1.89-5-1.23-.3.66,1.36,2.98,1.36,2.98,0,0-5.85-3.56-6.29-2.62-.44.94,2.58,4.1,2.58,4.1,0,0-9.56-4.51-9.99-2.76-.43,1.75,6.65,6.95,6.65,6.95,0,0-12.2-4.82-12.5-3-.3,1.82,13.03,9.34,13.03,9.34l-.13-.81Z"></path><!----><!----><!----><g><path fill="#f9f4e1" d="m81.3,140.02s15.76-20.26,31.83-24.94c18.67-5.44,34.79-7.73,56.63-1.24,16.95,5.04,32.41,27.25,32.41,27.25l8.75-17.1-39.58-30.92-58.21-7.92-31.58,31.17-.25,23.71Z"></path><path fill="#53391c" d="m224.31,174.04c-2.38-10.39-2.25-20.5-3.01-41.94s-3.69-44.08-20.24-59.47c-24.65-22.91-58.12-29.06-96.03-14.8-37.91,14.26-39.93,45.81-61.32,96.11-21.39,50.3,29.31,86.74,52.75,89.89,23.44,3.15,28.84-7.51,66.86-15.82,38.02-8.32,47.63-3.56,47.63-3.56,11.58-4.36,18.48-7.79,20.1-19.01,1.35-9.37-4.36-20.99-6.73-31.39Zm-40.26,39.01c-8.91,7.23-31.57,19.06-43.16,19.97-11.59-.91-34.25-12.74-43.16-19.97-6.69-5.42-13.94-18.71-20.03-32.06.03-.13.05-.21.05-.21,0,0-1.44-39.17,15.63-64.78,17.07-25.61,38.38-25.23,52.13-24.21s26.83,2.57,38.69,16.33c15.67,18.17,19.9,56.36,21.62,68.99-6.41,14.58-14.44,30-21.77,35.95Z"></path><path fill="#53391c" d="m209.95,225.45c-10.8-5.13-32.68,2-46.14,4.5-13.47,2.5-47.43,15.15-47.43,15.15,0,0,26.34-1.27,41.73-3.05,11.8-1.36,54.41-9.85,54.41-9.85,0,0,8.24-1.62-2.56-6.75Z"></path><path fill="#53391c" d="m209.92,234.79c-1.47,1.46-17.05,3.15-23.31,4.61-6.26,1.46-20.3,3.41-27.5,5-7.2,1.59-38.26,2.16-47.65,2.16s-20.9-2.16-20.9-2.16c0,0-18.93-9.51-21.01-11.01-2.09-1.49-8.55-4.14-12.3-2.89-3.75,1.25-6.05,2.29-7.72,7.09s4.17,6.8,16.89,13.76c10.91,5.97,35.69,19.39,60.06,17.93,11.85-.71,50.4-20.14,60.13-23.12,23.77-7.28,24.78-12.84,23.31-11.38Z"></path></g><!----><!----><!----><g><path fill="#db4052" d="m89.3,196.06c-.18-.03-4.44-1.57-8.01-6.01-4.79-5.96-4.51-10.39-4.78-11.69l1.05,2.42c0,.06,1.27,4.64,4.61,8.09,3.55,3.66,7.27,5.46,7.31,5.46l-.18,1.72Z"></path><path fill="#db4052" d="m135.59,194.72c1.35-.66,2.94-1.04,4.66-1.04s3.3.38,4.66,1.04c1.01.13,1.97.28,2.85.48-1.57-1.95-4.34-3.25-7.51-3.25s-5.93,1.31-7.51,3.25c.88-.2,1.84-.35,2.85-.48"></path><path fill="#db4052" d="m191.81,196.06c.19-.03,4.66-1.57,8.41-6.01,5.03-5.96,4.74-10.39,5.01-11.69l-1.1,2.42c0,.06-1.33,4.64-4.84,8.09-3.72,3.66-7.63,5.46-7.67,5.46l.19,1.72Z"></path><path fill="#db4052" d="m111.05,214.52c-13.2,0-23.93-10.74-23.93-23.93s10.74-23.93,23.93-23.93,23.93,10.74,23.93,23.93-10.74,23.93-23.93,23.93Zm0-45.86c-12.09,0-21.93,9.84-21.93,21.93s9.84,21.93,21.93,21.93,21.93-9.84,21.93-21.93-9.84-21.93-21.93-21.93Z"></path><path fill="#db4052" d="m169.75,214.52c-13.2,0-23.93-10.74-23.93-23.93s10.74-23.93,23.93-23.93,23.93,10.74,23.93,23.93-10.74,23.93-23.93,23.93Zm0-45.86c-12.09,0-21.93,9.84-21.93,21.93s9.84,21.93,21.93,21.93,21.93-9.84,21.93-21.93-9.84-21.93-21.93-21.93Z"></path></g></svg>