<svg id="ava-container" xmlns="http://www.w3.org/2000/svg" viewBox="0 0 276.85 311.76" width="300"><!----><!----><!----><path class="uuid-0bce1b92-9ee1-4cd2-95a8-a45de1cfb538" fill="#944921" d="m219.53,120.77c0-31.49-23.5-67.92-75.31-67.92-46.67,0-75.97,18.56-83.78,65.51-2.08,12.49,3.93,32.09,7.44,38.93,6.36,16.78,18.88,46.86,29.85,55.76,8.91,7.23,31.57,19.06,43.16,19.97,11.59-.91,34.25-12.74,43.16-19.97,11.84-9.6,25.47-43.86,31.24-59.46,5.15-11.82,4.25-28.17,4.25-32.82Z"></path><path fill="#fff" d="m122.66,180.52s-7.28,10.17-16.25,10.17-16.25-10.17-16.25-10.17c0,0,7.28-9.33,16.25-9.33s16.25,9.33,16.25,9.33"></path><path fill="#fff" d="m159.12,180.52s7.28,10.17,16.25,10.17,16.25-10.17,16.25-10.17c0,0-7.28-9.33-16.25-9.33s-16.25,9.33-16.25,9.33"></path><path fill="#231f20" d="m116.37,176.57c0-.77-.1-1.52-.26-2.24-2.33-2.62-5.74-4.28-9.55-4.28-4.03,0-7.62,1.85-9.94,4.73-.11.58-.17,1.18-.17,1.78,0,5.5,4.46,9.96,9.96,9.96s9.96-4.46,9.96-9.96"></path><path fill="#231f20" d="m165.41,176.57c0-.77.1-1.52.26-2.24,2.33-2.62,5.74-4.28,9.55-4.28,4.03,0,7.62,1.85,9.94,4.73.11.58.17,1.18.17,1.78,0,5.5-4.46,9.96-9.96,9.96s-9.96-4.46-9.96-9.96"></path><path fill="#6649e7" d="m185.16,174.79c-1.45-1.8-3.39-3.19-5.62-3.99,1.37,1.1,2.23,2.73,2.23,4.55,0,3.31-2.87,6-6.41,6s-6.41-2.69-6.41-6c0-1.91.95-3.6,2.43-4.7-2.24.7-4.21,1.98-5.72,3.69-.17.72-.26,1.47-.26,2.24,0,5.5,4.46,9.96,9.96,9.96s9.96-4.46,9.96-9.96c0-.61-.06-1.2-.17-1.78Z"></path><path fill="#6649e7" d="m116.11,174.33c-1.62-1.82-3.77-3.16-6.22-3.82,1.76,1.07,2.92,2.92,2.92,5.03,0,3.31-2.87,6-6.41,6s-6.41-2.69-6.41-6c0-2.01,1.06-3.79,2.68-4.88-2.42.77-4.52,2.21-6.07,4.12-.11.58-.17,1.18-.17,1.78,0,5.5,4.46,9.96,9.96,9.96s9.96-4.46,9.96-9.96c0-.77-.1-1.52-.26-2.24Z"></path><path fill="#fff" d="m103.33,176.63c0,1.43-1.16,2.59-2.59,2.59s-2.59-1.16-2.59-2.59,1.16-2.59,2.59-2.59,2.59,1.16,2.59,2.59"></path><path fill="#fff" d="m172.34,176.63c0,1.43-1.16,2.59-2.59,2.59s-2.59-1.16-2.59-2.59,1.16-2.58,2.59-2.58,2.59,1.16,2.59,2.58"></path><path fill="#231f20" d="m191.97,181.29s-4.94-7.68-15.04-9.6c-10.1-1.92-17.82,8.83-17.82,8.83,0,0,6.29-10.99,13.43-12.84,2.29-.59,5.13-.31,5.13-.31,0,0,4.16-1.71,4.79-1.33.64.39-.79,2.31-.79,2.31,0,0,4.7-1.89,5-1.23.3.66-1.36,2.98-1.36,2.98,0,0,5.85-3.56,6.29-2.62.44.94-2.58,4.1-2.58,4.1,0,0,9.56-4.51,9.99-2.76.43,1.75-6.65,6.95-6.65,6.95,0,0,12.21-4.82,12.51-3,.3,1.82-13.04,9.34-13.04,9.34l.13-.81Z"></path><path fill="#231f20" d="m89.81,181.29s4.94-7.68,15.04-9.6c10.1-1.92,17.82,8.83,17.82,8.83,0,0-6.29-10.99-13.44-12.84-2.29-.59-5.13-.31-5.13-.31,0,0-4.16-1.71-4.79-1.33-.63.39.79,2.31.79,2.31,0,0-4.7-1.89-5-1.23-.3.66,1.36,2.98,1.36,2.98,0,0-5.85-3.56-6.29-2.62-.44.94,2.58,4.1,2.58,4.1,0,0-9.56-4.51-9.99-2.76-.43,1.75,6.65,6.95,6.65,6.95,0,0-12.2-4.82-12.5-3-.3,1.82,13.03,9.34,13.03,9.34l-.13-.81Z"></path><!----><!----><g><path fill="#6d4021" d="m241.63,98.59c6.91-5.44,3.44-15.23,1.42-22.26-.58-3.36-4.34-5.81-7.52-4.59-2.6.92-8.1,3.36-8.1,1.22,0-16.21-2.03-34.86-21.18-32.58-4.56-.44-9.48-1.97-12.66-5.95,2.6,1.22,5.21.61,7.52-.92-1.16,0-2.31-.92-3.47-1.53-10.99-5.81-19.09-23.85-32.68-18.65-3.47,1.53-4.63,6.73-7.81,8.56-6.65,3.97-17.64,5.2-21.69-2.75,2.03.31,4.92,0,6.07-2.14-4.05,0-6.94-3.36-10.12-4.89-4.63-2.45-8.82-1.38-12.54,1.16-6.55,4.04-9.73,11.38-15.8,16.58-3.76,3.36-8.39.31-12.44.61-3.47.31-5.93,2.52-8.06,5.31-4.09,9.37-11.9,14.26-22.02,11.81-.87,0-1.45.31-2.03.92,1.16.61,2.6,0,3.76,1.22-1.74,0-2.6,1.53-3.18,3.06-.87,3.98.87,9.17-1.74,11.01-3.18,1.99-5.95,4.47-8.24,7.3-2.3,2.83-4.12,6-5.35,9.37-2.61,7.18-3.19,15.74,1.15,22.16,2.31,3.36,7.23,3.67,8.97,7.34.87,1.53.58,3.67-1.16,4.59-5.79,2.75-13.31,6.73-13.02,14.37.29,6.42,6.36,7.64,10.41,11.01,3.18,2.14,1.74,6.73.29,10.09,1.45-1.22,1.73-3.06,3.18-4.28,1.74,4.59-2.89,7.95-2.89,12.54.29.61.29,1.53.58,1.84,1.74.92,3.76-1.83,5.5.31,6.65,9.17,9.83,19.57,3.76,30.27-1.16,1.83-.29,4.89,1.74,6.42,5.78,3.67,17.35,8.56,11.57,17.12,2.89.61,5.21-2.45,4.63-5.5-1.16-7.34-7.52-9.78-11.57-14.98-.58-.92,0-1.83.29-2.45,2.31-5.2,12.44-4.89,10.99-11.01-2.31-10.09,2.31-19.27,7.17-26.48,1.82-2.84,3.68-5.63,5.27-8.39,2.31-3.67,1.45-7.95,1.74-11.93.29-4.89,3.76-8.26,7.59-10.4,2.82-1.68,5.86-3.21,8.03-5.81.87,2.45,3.47,4.28,5.5,3.97,3.23-.25,6.44-.29,9.64-.12,3.36.32,6.74.78,10.12,1.37,3.38.59,6.77,1.32,10.18,2.18,22.71,4.22,43.54,17.37,54.82,39.39-3.47-11.31-3.47-26.3-14.46-33.03,11.22,9.72,17.27,23.62,20.22,38.36,0,0,0,0,0,.01,2.14,10.8-8.24,16.22-5.75,26.54.14-1.09.39-3.12.98-4.08,3.18-5.2,9.26-7.65,10.7-13.46,3.76-15.29,13.1-16.5,21.49-29.04,5.93-6.01,4.57-10.74,4.43-12.84-.58-3.33-.16-4.58-.01-7.94.29-3.06,2.89-5.2,5.5-7.03,1.16-.92,2.02-3.06,1.45-4.89-1.74-5.5-7.52-10.7-4.08-16.76.71-.58,1.69-1.07,2.96-1.35Z"></path></g><!----><!----><g><path fill="#db4052" d="m91.66,196.06c-.22-.03-5.26-1.57-9.49-6.01-5.68-5.96-5.35-10.39-5.66-11.69l1.24,2.42c.01.06,1.51,4.64,5.47,8.09,4.2,3.66,8.61,5.46,8.66,5.46l-.21,1.72Z"></path><g><path fill="#db4052" d="m136.95,194.72c1.1-.66,2.4-1.04,3.8-1.04s2.69.38,3.8,1.04c.82.13,1.6.28,2.32.48-1.28-1.95-3.54-3.25-6.12-3.25s-4.84,1.31-6.12,3.25c.72-.2,1.5-.35,2.32-.48"></path><path fill="#db4052" d="m190.07,196.06c.22-.03,5.27-1.57,9.49-6.01,5.68-5.96,5.35-10.39,5.66-11.69l-1.24,2.42c-.01.06-1.5,4.64-5.46,8.09-4.2,3.66-8.61,5.46-8.66,5.46l.21,1.72Z"></path><path fill="#db4052" d="m134.5,195.07c0,5.69-8.45,14.46-19.68,14.46s-19.68-8.77-19.69-14.33c.39-.85,5.98-2.11,19.8-2.11,10.73,0,17.94.93,19.57,1.66v.31Zm1.67-1.3c-.99-2.84-20.79-2.92-23.04-2.92-14.92,0-22.68,1.19-23.1,3.65,0,7.78,10.6,17.28,22.98,17.28s22.7-9.25,22.97-16.97c.34-.43.25-.86.19-1.04"></path><path fill="#db4052" d="m147.24,194.76c1.63-.74,8.84-1.66,19.57-1.66,13.83,0,19.42,1.26,19.8,2.11-.02,5.55-8.46,14.33-19.69,14.33s-19.68-8.77-19.68-14.46v-.31Zm-1.48.05c.28,7.72,10.76,16.97,22.97,16.97s22.98-9.5,22.98-17.28c-.41-2.46-8.18-3.65-23.1-3.65-2.26,0-22.05.08-23.04,2.92-.06.18-.15.61.19,1.04"></path></g></g><!----><!----></svg>