<svg id="ava-container" xmlns="http://www.w3.org/2000/svg" viewBox="0 0 276.85 311.76" width="300"><!----><!----><!----><path class="uuid-0bce1b92-9ee1-4cd2-95a8-a45de1cfb538" fill="#e3a669" d="m219.53,120.77c0-31.49-23.5-67.92-75.31-67.92-46.67,0-75.97,18.56-83.78,65.51-2.08,12.49,3.93,32.09,7.44,38.93,6.36,16.78,18.88,46.86,29.85,55.76,8.91,7.23,31.57,19.06,43.16,19.97,11.59-.91,34.25-12.74,43.16-19.97,11.84-9.6,25.47-43.86,31.24-59.46,5.15-11.82,4.25-28.17,4.25-32.82Z"></path><path fill="#fff" d="m122.66,180.52s-7.28,10.17-16.25,10.17-16.25-10.17-16.25-10.17c0,0,7.28-9.33,16.25-9.33s16.25,9.33,16.25,9.33"></path><path fill="#fff" d="m159.12,180.52s7.28,10.17,16.25,10.17,16.25-10.17,16.25-10.17c0,0-7.28-9.33-16.25-9.33s-16.25,9.33-16.25,9.33"></path><path fill="#231f20" d="m116.37,176.57c0-.77-.1-1.52-.26-2.24-2.33-2.62-5.74-4.28-9.55-4.28-4.03,0-7.62,1.85-9.94,4.73-.11.58-.17,1.18-.17,1.78,0,5.5,4.46,9.96,9.96,9.96s9.96-4.46,9.96-9.96"></path><path fill="#231f20" d="m165.41,176.57c0-.77.1-1.52.26-2.24,2.33-2.62,5.74-4.28,9.55-4.28,4.03,0,7.62,1.85,9.94,4.73.11.58.17,1.18.17,1.78,0,5.5-4.46,9.96-9.96,9.96s-9.96-4.46-9.96-9.96"></path><path fill="#525156" d="m185.16,174.79c-1.45-1.8-3.39-3.19-5.62-3.99,1.37,1.1,2.23,2.73,2.23,4.55,0,3.31-2.87,6-6.41,6s-6.41-2.69-6.41-6c0-1.91.95-3.6,2.43-4.7-2.24.7-4.21,1.98-5.72,3.69-.17.72-.26,1.47-.26,2.24,0,5.5,4.46,9.96,9.96,9.96s9.96-4.46,9.96-9.96c0-.61-.06-1.2-.17-1.78Z"></path><path fill="#525156" d="m116.11,174.33c-1.62-1.82-3.77-3.16-6.22-3.82,1.76,1.07,2.92,2.92,2.92,5.03,0,3.31-2.87,6-6.41,6s-6.41-2.69-6.41-6c0-2.01,1.06-3.79,2.68-4.88-2.42.77-4.52,2.21-6.07,4.12-.11.58-.17,1.18-.17,1.78,0,5.5,4.46,9.96,9.96,9.96s9.96-4.46,9.96-9.96c0-.77-.1-1.52-.26-2.24Z"></path><path fill="#fff" d="m103.33,176.63c0,1.43-1.16,2.59-2.59,2.59s-2.59-1.16-2.59-2.59,1.16-2.59,2.59-2.59,2.59,1.16,2.59,2.59"></path><path fill="#fff" d="m172.34,176.63c0,1.43-1.16,2.59-2.59,2.59s-2.59-1.16-2.59-2.59,1.16-2.58,2.59-2.58,2.59,1.16,2.59,2.58"></path><path fill="#231f20" d="m191.97,181.29s-4.94-7.68-15.04-9.6c-10.1-1.92-17.82,8.83-17.82,8.83,0,0,6.29-10.99,13.43-12.84,2.29-.59,5.13-.31,5.13-.31,0,0,4.16-1.71,4.79-1.33.64.39-.79,2.31-.79,2.31,0,0,4.7-1.89,5-1.23.3.66-1.36,2.98-1.36,2.98,0,0,5.85-3.56,6.29-2.62.44.94-2.58,4.1-2.58,4.1,0,0,9.56-4.51,9.99-2.76.43,1.75-6.65,6.95-6.65,6.95,0,0,12.21-4.82,12.51-3,.3,1.82-13.04,9.34-13.04,9.34l.13-.81Z"></path><path fill="#231f20" d="m89.81,181.29s4.94-7.68,15.04-9.6c10.1-1.92,17.82,8.83,17.82,8.83,0,0-6.29-10.99-13.44-12.84-2.29-.59-5.13-.31-5.13-.31,0,0-4.16-1.71-4.79-1.33-.63.39.79,2.31.79,2.31,0,0-4.7-1.89-5-1.23-.3.66,1.36,2.98,1.36,2.98,0,0-5.85-3.56-6.29-2.62-.44.94,2.58,4.1,2.58,4.1,0,0-9.56-4.51-9.99-2.76-.43,1.75,6.65,6.95,6.65,6.95,0,0-12.2-4.82-12.5-3-.3,1.82,13.03,9.34,13.03,9.34l-.13-.81Z"></path><!----><!----><!----><!----><g><path fill="#d94153" d="m66.57,273.47s-1.05-.11-.83,1.09-1.09,2.23,1.78,3.28,4.85,2,6.05,1.93,2.07.62,3.53.3.72-2.13.72-2.13l-.78-1.43-4.19-2.33-6.28-.72Z"></path><path fill="#e4e1ce" d="m63.27,171.64s-.53,3.89-2.52,4.5-3.47-2.05-3.37-3.38-.62-5.32,1.03-5.91,4.86,4.79,4.86,4.79Z"></path><path fill="#e4e1ce" d="m65.11,172.93s-3.07,1.28-4.01,4.65.39,7.5.39,7.5c0,0,.93,4.44,3.13,2.83s7.39-8.63,6.92-7.7l-6.43-7.3Z"></path><path fill="#e4e1ce" d="m70.9,183.22s-.45,3.58,1.16,6.19-.51,5.07-.51,5.07c0,0-3.17,2.5-4.39,4.85s-3.1,1.27-3.33.46c-.56-1.95-.75-4.69-.31-5.89.76-2.05,3.07-5.88,4.01-6.93s3.36-3.74,3.36-3.74Z"></path><path fill="#e4e1ce" d="m74.58,193.31s-1.29,1.4-1.21,4.33.17,6.98,2.1,8.17,7.25,1.68,9.44,2.14,4.82,2.75,7.3.48c1.25-1.14-2.55-6.03-4.47-6.99s-2.51-5.61-6.58-6.4-6.58-1.74-6.58-1.74Z"></path><path fill="#e4e1ce" d="m72.33,194.76s-3.46,3.21-5.12,5.38-2.22,6.16-1.56,7.35,1.09,2.03,2.07,2.48l.98.45s.16-1.16,1.67-2.46,3.05-2.1,3.05-2.1c0,0-1.4-3.45-1.58-4.09s.48-7.01.48-7.01Z"></path><path fill="#e4e1ce" d="m73.76,206.7s-4.75,2.63-6.36,9.12,2.56,9.15,2.98,8.99,1.23.09,1.94-.1l.71-.19s2.3-2.78,3.7-3.58,2.73-1.51,2.73-1.51c0,0-2.31-1.56-2.87-3.89s-.21-6.82-.21-6.82c0,0-2.29-1.18-2.63-2.02Z"></path><path fill="#e4e1ce" d="m77.27,208.26s-1.18,3.47.94,7.2,8.31,6,9.69,6.36,5.55.71,6.6,1.77,1.62,1.33,1.62,1.33c0,0,1.19-3.35.59-5.3s-3.07-6.53-6-8.11-11.08-3.38-12.25-3.32l-1.17.06Z"></path><path fill="#e4e1ce" d="m80.78,219.66s-4.02,2.7-6.03,4.97-3.74,5.95-3.92,8.5.26,5,.26,5c0,0,3.26-5.25,5.55-6.42s4.63-2.6,4.63-2.6c0,0-1.37-3.75-.69-5.99s.19-3.46.19-3.46Z"></path><path fill="#e4e1ce" d="m82.18,220.45s-.72.53-.14,4.34,3.17,7.27,4.27,8.14,5.02,3.52,5.02,3.52c0,0,3.3,1.87,3.41,2.55s.45,1.4.45,1.4c0,0,1.28-.38,2.02-2.77s1.41-7.38.72-8.77-6.88-5.4-8.09-5.83-5.83-.93-6.74-1.75l-.91-.82Z"></path><path fill="#e4e1ce" d="m80.39,230.46s-4.03,2.3-6.25,5.55-2.56,5.84-2.49,7.21l.15,2.89s1.09-2.23,3.34-3.71,3.36-1.54,3.36-1.54c0,0,.75-1.17,1.24-1.19s-.56-2.95-.01-4.82.65-4.38.65-4.38Z"></path><path fill="#e4e1ce" d="m82.73,230.73s-.6-.21-1.14,2.23-.45,4.77.35,6.57,2.88,4.91,4.49,6.36,4.69,5.78,4.96,6.73.5,2.39.5,2.39c0,0,1.5-.56,2.17-3.01s1.54-4.34,1.26-6.58-2.48-5.82-3.91-7.11-6.36-4.73-6.89-5.59-1.79-2-1.79-2Z"></path><path fill="#e4e1ce" d="m78.55,241.65s-3.36,1.54-5.71,4.4-3.73,5.58-3.65,7.11l.12,2.25s.52-2.44,3.59-3.65,3.03-.56,3.03-.56c0,0,.96-1.58,1.52-1.69l.56-.11s-.84-.76-.59-2.14-.05-3.62,1.14-5.61Z"></path><path fill="#e4e1ce" d="m80.95,241.14s-1.58.55-1.91,3.46.18,6.42,1.08,8.3,4.14,3.88,4.52,4.99,1.84,2.88,1.89,3.76l.09,1.68s1.23.5,2.12-.92,2.48-3.27,1.71-7.33-2.94-7.08-3.86-7.68-4.05-3.09-4.46-4.27-1.18-2-1.18-2Z"></path><path fill="#e4e1ce" d="m78.18,251.24s-2.38.69-2.37,3.82.73,6.23,1.54,7.16,3.47,5.61,3.47,5.61l.16,2.97s.99.59,2.08-.11,2.68-1.91,2.53-3.67.52-4.29-.74-6.8-5.45-6.31-5.58-6.94-1.09-2.03-1.09-2.03Z"></path><path fill="#e4e1ce" d="m74.99,252.13s-1.86.9-4.15,3.19-2.68,2.55-2.96,4.82.22,4.28.22,4.28c0,0,1.38-1.31,2.57-1.62s1.58.08,1.58.08c0,0,.15-2.26,1.23-3.04l1.08-.78s-.52-6,.42-6.94Z"></path><path fill="#e4e1ce" d="m75.42,260.39s-1.45-.57-1.98,3.08-.47,4.77.37,6.98,2.46,3.33,2.38,4.38,2.75-.14,2.75-.14c0,0,1.46-1.77,1.24-4.17s-2.36-6.31-3.13-7.23-1.62-2.89-1.62-2.89Z"></path><path fill="#e4e1ce" d="m71.75,263.88s-2.15-.61-3.04,1.85-1.32,2-1.22,3.92.5,3.35.5,3.35l1.89-.1,3.34.23s-.99-1.23-1.16-3.24-.32-6.01-.32-6.01Z"></path><path fill="#e4e1ce" d="m65.71,277.7s2.94,1.87,5.72,2.72,5.07.57,5.07.57c0,0,2.22,3.48.95,5.9-1.06,2.01-7.58,3.04-4.5,11.33,1.21,3.26-2.52-7.69-2.71-6.65-.98,5.39,2.63,17.38,2.63,17.38,0,0-12.07-11.58-12.61-16.84-1.58-15.38,5.45-14.41,5.45-14.41Z"></path><path fill="#d94153" d="m212.85,273.25s1.05-.06.78,1.12,1,2.27-1.91,3.21-4.92,1.8-6.12,1.69-2.09.53-3.53.16-.63-2.16-.63-2.16l.84-1.39,4.28-2.17,6.3-.46Z"></path><path fill="#e4e1ce" d="m220.19,171.63s.38,3.91,2.34,4.6,3.55-1.91,3.5-3.24.83-5.29-.8-5.95-5.04,4.59-5.04,4.59Z"></path><path fill="#e4e1ce" d="m218.3,172.84s3.02,1.4,3.83,4.81-.69,7.48-.69,7.48c0,0-1.1,4.4-3.24,2.71s-7.04-8.91-6.61-7.96l6.72-7.03Z"></path><path fill="#e4e1ce" d="m212.11,182.89s.31,3.6-1.41,6.14.31,5.08.31,5.08c0,0,3.07,2.62,4.2,5.02s3.04,1.39,3.31.59c.64-1.93.94-4.65.54-5.88-.67-2.08-2.83-5.99-3.73-7.09s-3.21-3.87-3.21-3.87Z"></path><path fill="#e4e1ce" d="m208.03,192.83s1.24,1.45,1.04,4.38c-.2,2.92-.45,6.97-2.43,8.08s-7.31,1.39-9.51,1.76-4.92,2.55-7.32.19c-1.2-1.19,2.79-5.93,4.75-6.81s2.73-5.5,6.83-6.13c4.1-.63,6.65-1.47,6.65-1.47Z"></path><path fill="#e4e1ce" d="m210.22,194.36s3.33,3.34,4.9,5.58c1.57,2.24,1.97,6.25,1.26,7.41s-1.17,1.99-2.17,2.4l-1,.41s-.11-1.17-1.57-2.53-2.97-2.22-2.97-2.22c0,0,1.54-3.4,1.74-4.03s-.2-7.02-.2-7.02Z"></path><path fill="#e4e1ce" d="m208.31,206.24s4.65,2.81,5.99,9.36-2.92,9.04-3.34,8.86-1.24.04-1.94-.17l-.7-.21s-2.19-2.87-3.55-3.72-2.67-1.62-2.67-1.62c0,0,2.37-1.46,3.02-3.78s.48-6.8.48-6.8c0,0,2.34-1.08,2.71-1.92Z"></path><path fill="#e4e1ce" d="m204.75,207.66s1.04,3.52-1.22,7.16c-2.26,3.64-8.54,5.67-9.93,5.97s-5.57.49-6.66,1.5-1.67,1.27-1.67,1.27c0,0-1.05-3.39-.38-5.32s3.33-6.4,6.32-7.86,11.21-2.94,12.38-2.83l1.17.11Z"></path><path fill="#e4e1ce" d="m200.79,218.91s3.91,2.86,5.83,5.21,3.5,6.09,3.58,8.65-.46,4.99-.46,4.99c0,0-3.04-5.38-5.29-6.64s-4.53-2.78-4.53-2.78c0,0,1.52-3.69.92-5.96s-.05-3.46-.05-3.46Z"></path><path fill="#e4e1ce" d="m199.35,219.64s.69.56-.03,4.35-3.46,7.14-4.59,7.96-5.15,3.31-5.15,3.31c0,0-3.37,1.74-3.51,2.41s-.51,1.38-.51,1.38c0,0-1.27-.43-1.91-2.85s-1.11-7.43-.37-8.79,7.09-5.12,8.32-5.5,5.86-.7,6.8-1.48l.94-.78Z"></path><path fill="#e4e1ce" d="m200.75,229.72s3.93,2.46,6.02,5.8,2.33,5.94,2.2,7.3l-.27,2.88s-1-2.27-3.19-3.84-3.3-1.68-3.3-1.68c0,0-.71-1.19-1.19-1.24s.67-2.92.2-4.82-.48-4.4-.48-4.4Z"></path><path fill="#e4e1ce" d="m198.39,229.9s.61-.18,1.05,2.28c.45,2.46.26,4.78-.61,6.56s-3.08,4.8-4.74,6.17-4.92,5.59-5.22,6.53-.6,2.36-.6,2.36c0,0-1.47-.62-2.05-3.09s-1.37-4.4-1-6.62,2.71-5.72,4.19-6.95,6.54-4.47,7.1-5.31,1.87-1.93,1.87-1.93Z"></path><path fill="#e4e1ce" d="m202.14,240.97s3.3,1.68,5.53,4.62,3.5,5.73,3.36,7.25l-.21,2.24s-.42-2.46-3.44-3.79-3-.68-3-.68c0,0-.9-1.62-1.45-1.75l-.55-.13s.87-.73.68-2.11.2-3.61-.92-5.65Z"></path><path fill="#e4e1ce" d="m199.76,240.37s1.56.61,1.77,3.53-.43,6.41-1.41,8.26-4.29,3.71-4.72,4.8-1.95,2.8-2.03,3.68l-.16,1.68s-1.25.45-2.08-1-2.35-3.36-1.41-7.39,3.22-6.96,4.16-7.52,4.17-2.93,4.62-4.09,1.26-1.96,1.26-1.96Z"></path><path fill="#e4e1ce" d="m202.12,250.57s2.35.78,2.22,3.91c-.13,3.13-.98,6.2-1.82,7.09s-3.69,5.46-3.69,5.46l-.27,2.96s-1.01.55-2.08-.19-2.6-2.01-2.38-3.77-.34-4.31,1.01-6.76c1.36-2.45,5.69-6.09,5.85-6.72s1.17-1.99,1.17-1.99Z"></path><path fill="#e4e1ce" d="m205.28,251.58s1.82.97,4.02,3.36,2.58,2.66,2.77,4.93-.4,4.27-.4,4.27c0,0-1.32-1.37-2.5-1.72s-1.59.01-1.59.01c0,0-.06-2.26-1.11-3.09l-1.05-.82s.76-5.98-.14-6.95Z"></path><path fill="#e4e1ce" d="m204.52,259.82s1.47-.51,1.86,3.16c.39,3.66.28,4.78-.64,6.96s-2.59,3.23-2.55,4.28-2.74-.25-2.74-.25c0,0-1.39-1.82-1.08-4.21s2.6-6.21,3.41-7.1,1.74-2.82,1.74-2.82Z"></path><path fill="#e4e1ce" d="m208.05,263.45s2.17-.52,2.96,1.97,1.24,2.05,1.06,3.97-.63,3.33-.63,3.33l-1.88-.17-3.35.09s1.04-1.19,1.28-3.19.55-6,.55-6Z"></path><path fill="#e4e1ce" d="m213.53,277.51s-3.02,1.75-5.83,2.49-5.09.37-5.09.37c0,0-2.36,3.39-1.18,5.86.98,2.05,7.46,3.33,4.05,11.5-1.34,3.21,2.82-7.58,2.97-6.53.77,5.43-3.32,17.27-3.32,17.27,0,0,12.52-11.09,13.27-16.32,2.19-15.31-4.87-14.62-4.87-14.62Z"></path><path fill="#e4e1ce" d="m140.89,17.03c-55.94,0-101.29,45.35-101.29,101.29,0,38.34,21.3,71.69,52.71,88.89-14.08-18.56-28.62-61.46-28.62-61.46,0,0,9.45-46.83,73.45-49.35,1.28-.05,2.51-.04,3.75-.05,1.24,0,2.47,0,3.76.05,63.99,2.52,73.45,49.35,73.45,49.35,0,0-14.54,42.9-28.62,61.46,31.41-17.2,52.71-50.56,52.71-88.89,0-55.94-45.35-101.29-101.29-101.29Z"></path><path fill="#e4e1ce" d="m34.72,158.82c38.36,2.21,50.73-30.62,50.73-30.62,0,0,25.63,19.65,64.87,30.73,51.09,14.43,97.62-21.31,97.62-21.31,0,0-38.48-15.06-49.85-75.82-37.61-11.27-90.85,8.39-121.65,23.16-30.81,14.77-19.33,63.61-41.71,73.87"></path></g><!----><!----><g><path fill="#221f20" d="m89.3,196.06c-.18-.03-4.44-1.57-8.01-6.01-4.79-5.96-4.51-10.39-4.78-11.69l1.05,2.42c0,.06,1.27,4.64,4.61,8.09,3.55,3.66,7.27,5.46,7.31,5.46l-.18,1.72Z"></path><path fill="#221f20" d="m135.59,194.72c1.35-.66,2.94-1.04,4.66-1.04s3.3.38,4.66,1.04c1.01.13,1.97.28,2.85.48-1.57-1.95-4.34-3.25-7.51-3.25s-5.93,1.31-7.51,3.25c.88-.2,1.84-.35,2.85-.48"></path><path fill="#221f20" d="m191.81,196.06c.19-.03,4.66-1.57,8.41-6.01,5.03-5.96,4.74-10.39,5.01-11.69l-1.1,2.42c0,.06-1.33,4.64-4.84,8.09-3.72,3.66-7.63,5.46-7.67,5.46l.19,1.72Z"></path><path fill="#221f20" d="m111.05,214.52c-13.2,0-23.93-10.74-23.93-23.93s10.74-23.93,23.93-23.93,23.93,10.74,23.93,23.93-10.74,23.93-23.93,23.93Zm0-45.86c-12.09,0-21.93,9.84-21.93,21.93s9.84,21.93,21.93,21.93,21.93-9.84,21.93-21.93-9.84-21.93-21.93-21.93Z"></path><path fill="#221f20" d="m169.75,214.52c-13.2,0-23.93-10.74-23.93-23.93s10.74-23.93,23.93-23.93,23.93,10.74,23.93,23.93-10.74,23.93-23.93,23.93Zm0-45.86c-12.09,0-21.93,9.84-21.93,21.93s9.84,21.93,21.93,21.93,21.93-9.84,21.93-21.93-9.84-21.93-21.93-21.93Z"></path></g></svg>